# xmcd
# Track frame offsets:
# 150
# 19902
# 36427
# 51130
# 64900
# 77537
# 97270
# 114670
# 130235
# 145180
#
# Disc length: 2086 seconds
# Revision: 2
# Processed by: cddbd v1.5.1PL0 Copyright (c) Steve Scherf et al.
# Submitted via: VisiTrax 2.9.9.209 - For more info visit www.synapsa.com
#
DISCID=8e08240a
DTITLE=Ester Brohus - Ester Brohus
DYEAR=1992
DGENRE=
TTITLE0=The Perfect Way
TTITLE1=The Love We Make
TTITLE2=Gypsy Talk
TTITLE3=Love's Insane
TTITLE4=Something So Strong
TTITLE5=Don't Believe In Miracles
TTITLE6=Eyes To See
TTITLE7=Lonesome Heart
TTITLE8=It's All Over Now Baby Blue
TTITLE9=Reason To Live
EXTD=
EXTT0=
EXTT1=
EXTT2=
EXTT3=
EXTT4=
EXTT5=
EXTT6=
EXTT7=
EXTT8=
EXTT9=
PLAYORDER=
